<mxfile host="app.diagrams.net" modified="2022-03-07T19:12:50.704Z" agent="5.0 (Macintosh; Intel Mac OS X 10_15_7) AppleWebKit/537.36 (KHTML, like Gecko) Chrome/97.0.4692.71 Safari/537.36" etag="OFt1JCJBuWpQhY3ZIIyr" version="16.6.5" type="github" pages="2">
  <diagram id="0hKhgV95uKddXoEig--i" name="Page-1">
    <mxGraphModel dx="946" dy="646" grid="1" gridSize="10" guides="1" tooltips="1" connect="1" arrows="1" fold="1" page="1" pageScale="1" pageWidth="850" pageHeight="1100" math="0" shadow="0">
      <root>
        <mxCell id="0" />
        <mxCell id="1" parent="0" />
      </root>
    </mxGraphModel>
  </diagram>
  <diagram id="XL1TjokyVef0rBh8G3oC" name="Page-2">
    <mxGraphModel dx="946" dy="646" grid="1" gridSize="10" guides="1" tooltips="1" connect="1" arrows="1" fold="1" page="1" pageScale="1" pageWidth="850" pageHeight="1100" math="0" shadow="0">
      <root>
        <mxCell id="Lw5mLX2M6K8LQNpXuLPb-0" />
        <mxCell id="Lw5mLX2M6K8LQNpXuLPb-1" parent="Lw5mLX2M6K8LQNpXuLPb-0" />
      </root>
    </mxGraphModel>
  </diagram>
</mxfile>
